<?xml version="1.0" encoding="UTF-8" standalone="no"?>
<!-- Generator: Adobe Illustrator 19.0.0, SVG Export Plug-In . SVG Version: 6.00 Build 0)  -->

<svg
   version="1.1"
   id="Layer_1"
   x="0px"
   y="0px"
   viewBox="0 0 512 512"
   style="enable-background:new 0 0 512 512;"
   xml:space="preserve"
   sodipodi:docname="dashboard_colored.svg"
   inkscape:version="1.1.2 (b8e25be833, 2022-02-05)"
   xmlns:inkscape="http://www.inkscape.org/namespaces/inkscape"
   xmlns:sodipodi="http://sodipodi.sourceforge.net/DTD/sodipodi-0.dtd"
   xmlns="http://www.w3.org/2000/svg"
   xmlns:svg="http://www.w3.org/2000/svg"><defs
   id="defs101" /><sodipodi:namedview
   id="namedview99"
   pagecolor="#ffffff"
   bordercolor="#666666"
   borderopacity="1.0"
   inkscape:pageshadow="2"
   inkscape:pageopacity="0.0"
   inkscape:pagecheckerboard="0"
   showgrid="false"
   inkscape:zoom="1.5801107"
   inkscape:cx="420.54015"
   inkscape:cy="238.59087"
   inkscape:window-width="1920"
   inkscape:window-height="1017"
   inkscape:window-x="-8"
   inkscape:window-y="-8"
   inkscape:window-maximized="1"
   inkscape:current-layer="Layer_1" />
<g
   transform="translate(1 1)"
   id="g66">
	<g
   id="g64">
		<g
   id="g62">
			<path
   d="M244.76,343.747c3.413,0.853,6.827,0.853,10.24,0.853c16.213,0,30.72-9.387,38.4-23.893     c1.707-4.267,4.267-9.387,6.827-14.507c7.68-14.507,14.507-29.867,23.04-44.373l24.747-40.96     c1.707-3.413,0.853-6.827-1.707-10.24c-2.56-3.413-6.827-3.413-10.24-1.707l-40.96,24.747     c-14.507,8.533-29.867,16.213-44.373,23.04c-4.267,1.707-9.387,4.267-14.507,6.827c-17.92,9.387-27.307,29.013-23.04,48.64     C216.6,327.533,229.4,340.333,244.76,343.747z M243.907,278.893c4.267-2.56,9.387-4.267,14.507-6.827     c15.36-7.68,31.573-15.36,46.08-23.893l11.093-6.827l-6.827,11.093c-9.387,15.36-17.067,30.72-23.893,46.08     c-1.707,5.12-4.267,9.387-6.827,14.507c-5.12,11.093-17.067,16.213-29.013,13.653c-9.387-1.707-17.067-9.387-18.773-18.773     C227.693,295.96,232.813,284.013,243.907,278.893z"
   id="path56" />
			<path
   d="M492.719,207.208c-0.108-0.575-0.27-1.146-0.492-1.702c-0.223-0.558-0.507-1.069-0.837-1.537     c-12.787-30.616-31.365-58.265-54.348-81.565c-0.324-0.482-0.701-0.944-1.135-1.378s-0.896-0.811-1.378-1.135     C388.233,74.226,324.764,45.933,255,45.933c-33.418,0-65.389,6.5-94.725,18.281c-0.575,0.108-1.146,0.27-1.701,0.492     c-0.557,0.223-1.069,0.507-1.537,0.837c-30.616,12.787-58.265,31.365-81.565,54.348c-0.482,0.324-0.944,0.701-1.378,1.135     s-0.812,0.896-1.135,1.378C27.293,168.7-1,232.169-1,301.933c0,58.027,18.773,113.493,55.467,158.72     c1.707,2.56,4.267,3.413,6.827,3.413h387.413c2.56,0,5.12-0.853,6.827-3.413C492.227,415.427,511,359.96,511,301.933     C511,268.515,504.5,236.544,492.719,207.208z M445.293,447H65.56c-11.539-14.88-21.122-30.844-28.695-47.616l23.575-9.557     c4.267-1.707,5.973-6.827,4.267-11.093c-1.707-4.267-6.827-5.973-11.093-4.267l-23.11,9.369     c-8.574-23.342-13.394-48.021-14.278-73.369H75.8c5.12,0,8.533-3.413,8.533-8.533S80.92,293.4,75.8,293.4H16.237     c0.957-26.907,6.416-52.715,15.648-76.694L55.32,226.84c0.853,0.853,2.56,0.853,3.413,0.853c3.413,0,5.973-1.707,7.68-5.12     c1.707-4.267,0-9.387-4.267-11.093l-23.672-10.237c10.699-22.831,24.906-43.721,41.922-61.967l17.59,17.59     c1.707,1.707,3.413,2.56,5.973,2.56s4.267-0.853,5.973-2.56c3.413-3.413,3.413-8.533,0-11.947l-17.59-17.59     c19.117-17.828,41.131-32.581,65.244-43.438l9.52,23.482c0.853,3.413,4.267,5.12,7.68,5.12c0.853,0,1.707,0,3.413-0.853     c4.267-1.707,5.973-6.827,4.267-11.093l-9.329-23.012c23.021-8.463,47.679-13.452,73.329-14.364v59.563     c0,5.12,3.413,8.533,8.533,8.533s8.533-3.413,8.533-8.533V63.17c26.907,0.957,52.715,6.416,76.694,15.648l-10.134,23.436     c-1.707,4.267,0,9.387,4.267,11.093c0.853,0.853,2.56,0.853,3.413,0.853c3.413,0,6.827-2.56,7.68-5.12l10.237-23.672     c22.831,10.699,43.721,24.906,61.967,41.922l-17.59,17.59c-3.413,3.413-3.413,8.533,0,11.947c1.707,1.707,3.413,2.56,5.973,2.56     c1.707,0,4.267-0.853,5.973-2.56l17.59-17.59c17.828,19.117,32.581,41.131,43.438,65.244l-23.482,9.52     c-4.267,1.707-5.973,6.827-4.267,11.093c0.853,3.413,4.267,5.12,7.68,5.12c0.853,0,1.707-0.853,3.413-0.853l23.013-9.329     c8.463,23.021,13.452,47.679,14.364,73.329H434.2c-5.12,0-8.533,3.413-8.533,8.533s3.413,8.533,8.533,8.533h59.575     c-0.927,26.593-6.172,52.45-15.418,76.799l-23.677-10.239c-4.267-1.707-9.387,0-11.093,4.267c-1.707,4.267,0,9.387,4.267,11.093     l23.981,10.37C464.644,418.298,455.773,433.121,445.293,447z"
   id="path58" />
			<path
   d="M246.467,353.133c-51.2,0-91.307,25.6-102.4,65.707c0,2.56,0,5.973,1.707,7.68c1.707,2.56,4.267,3.413,6.827,3.413     h187.733c2.56,0,5.12-0.853,6.827-3.413c1.707-2.56,2.56-5.12,1.707-7.68C336.92,378.733,297.667,353.133,246.467,353.133z      M251.302,412.867l-14.222-21.333c-2.56-4.267-7.68-5.12-11.947-2.56c-4.267,2.56-5.12,7.68-2.56,11.947l7.964,11.947H165.4     c12.8-26.453,43.52-42.667,81.92-42.667c37.547,0,68.267,16.213,81.067,42.667H251.302z"
   id="path60" />
		</g>
	</g>
</g>
<g
   id="g68">
</g>
<g
   id="g70">
</g>
<g
   id="g72">
</g>
<g
   id="g74">
</g>
<g
   id="g76">
</g>
<g
   id="g78">
</g>
<g
   id="g80">
</g>
<g
   id="g82">
</g>
<g
   id="g84">
</g>
<g
   id="g86">
</g>
<g
   id="g88">
</g>
<g
   id="g90">
</g>
<g
   id="g92">
</g>
<g
   id="g94">
</g>
<g
   id="g96">
</g>
<path
   style="fill:#cc0000;stroke-width:0.11211"
   d="m 254.08586,328.2 c -1.5519,-0.1124 -4.22798,-0.56406 -5.70572,-0.96298 -6.55751,-1.77025 -12.1558,-6.40781 -15.14228,-12.5437 -1.11257,-2.28583 -1.9074,-5.09407 -2.36397,-8.35221 -0.22294,-1.59093 -0.19318,-5.68018 0.053,-7.28717 0.86237,-5.62855 3.21112,-10.41273 6.95756,-14.17191 1.79772,-1.80383 3.7738,-3.2452 6.12336,-4.46642 0.64744,-0.33651 1.68262,-0.88935 2.30042,-1.22853 1.44252,-0.79196 3.50604,-1.75225 7.285,-3.39016 3.22424,-1.39748 9.30438,-4.35789 22.87048,-11.13562 17.24061,-8.61353 23.67863,-12.11309 34.23309,-18.60831 3.04308,-1.87272 5.54582,-3.38908 5.56165,-3.36968 0.0158,0.0194 -0.95253,1.62442 -2.15192,3.56673 -6.73254,10.90284 -9.29545,15.25768 -13.22879,22.4781 -5.42991,9.96763 -13.45258,26.54841 -15.6768,32.39984 -0.35157,0.92491 -0.98676,2.4384 -1.41153,3.36331 -0.89735,1.95389 -5.15525,10.25569 -6.07679,11.84812 -2.69264,4.65298 -7.30686,8.44447 -12.62129,10.37089 -3.27443,1.18695 -7.42624,1.74893 -11.0055,1.4897 z"
   id="path316" /><path
   style="fill:#a8cbfe;stroke-width:0.632867"
   d="m 167.39333,413.06047 c 0,-0.28498 1.06797,-2.27033 2.37325,-4.41188 11.56203,-18.96951 33.47952,-31.85531 60.99468,-35.86018 8.60956,-1.25313 25.93978,-1.26019 34.70745,-0.0141 28.0137,3.98127 52.12262,18.98035 62.2812,38.74752 l 1.05702,2.05682 -38.14649,-0.0143 -38.14649,-0.0143 -7.5944,-11.48049 c -4.66454,-7.0514 -8.32688,-11.92808 -9.49301,-12.64068 -5.21484,-3.18669 -12.74796,0.51517 -13.43399,6.60163 -0.35561,3.15497 0.28256,4.66619 4.8715,11.53588 1.6276,2.43654 3.16884,4.78606 3.42498,5.22116 0.37001,0.62853 -6.04397,0.79108 -31.215,0.79108 -17.42438,0 -31.6807,-0.23316 -31.6807,-0.51814 z"
   id="path905" /><path
   style="fill:#e6e6e6;stroke-width:0.632867"
   d="m 62.108436,441.24863 c -7.993721,-10.9689 -17.947171,-27.6896 -22.144377,-37.20012 l -1.552512,-3.51786 12.212664,-4.91406 c 6.716966,-2.70273 12.793288,-5.53394 13.50294,-6.29158 3.18498,-3.40033 3.29985,-9.08463 0.242522,-12.0011 -1.859274,-1.77363 -4.522087,-2.98305 -6.567818,-2.98305 -0.708848,0 -6.583704,2.13592 -13.055234,4.7465 -6.47153,2.61057 -12.129724,4.7465 -12.573766,4.7465 -0.769063,0 -4.124647,-9.85876 -7.108409,-20.88461 -2.921113,-10.79435 -5.873531,-28.23398 -6.696273,-39.55419 -0.202383,-2.78462 -0.522643,-6.55809 -0.711688,-8.38549 l -0.343719,-3.32255 h 30.759917 c 33.221538,0 33.918698,-0.065 36.078338,-3.36097 1.659415,-2.53259 1.898088,-5.80822 0.659523,-9.05136 -0.897298,-2.34954 -1.611874,-3.13536 -3.722739,-4.09391 -2.436909,-1.1066 -4.662693,-1.18717 -33.152545,-1.20014 l -30.540254,-0.0139 0.360274,-4.58829 c 1.39066,-17.71082 3.69846,-32.24303 7.311589,-46.04107 2.831692,-10.81384 7.56439,-24.68182 8.423114,-24.68182 0.413887,0 5.972996,2.27832 12.353576,5.06294 14.095023,6.15135 15.943138,6.39542 19.732635,2.60592 2.989311,-2.98931 3.49479,-6.989 1.39627,-11.04821 -0.988417,-1.91191 -3.083293,-2.99756 -17.925268,-9.28965 -4.350961,-1.84454 -8.145889,-3.55777 -8.433173,-3.80717 -1.062934,-0.92277 9.373944,-19.83966 17.788099,-32.241 6.216173,-9.16182 11.330889,-15.8151 18.183276,-23.65303 l 4.886804,-5.58964 9.937917,9.86804 9.937921,9.86804 h 3.50899 c 3.90956,0 6.16926,-1.28952 7.80595,-4.45453 1.10757,-2.14181 1.21947,-5.82965 0.23575,-7.76977 -0.38549,-0.76029 -4.82196,-5.53751 -9.85882,-10.61605 l -9.15792,-9.23369 4.637669,-4.11566 c 15.265211,-13.54699 34.400101,-26.391307 53.199351,-35.710154 3.84151,-1.904245 6.36518,-2.822978 6.70586,-2.441246 0.30044,0.336647 2.78086,6.131823 5.51206,12.878169 5.54926,13.707291 6.28318,14.626031 11.68367,14.626031 4.96097,0 8.86014,-3.79143 8.86014,-8.61532 0,-0.98101 -2.16495,-7.160094 -4.811,-13.73129 -2.71299,-6.73744 -4.57187,-12.186756 -4.26265,-12.495979 0.90938,-0.90938 13.87769,-4.969037 23.31316,-7.298056 14.53483,-3.587728 29.1235,-5.796038 44.77534,-6.777716 l 3.63899,-0.228236 0.001,30.746119 c 6.3e-4,28.003918 0.0997,30.943678 1.10751,32.961158 2.89848,5.80211 12.6048,5.80211 15.50328,0 1.00784,-2.01748 1.10662,-4.95724 1.10752,-32.961158 l 7e-4,-30.746119 3.63898,0.228236 c 24.50187,1.536748 51.21856,7.087868 70.52671,14.653845 l 1.70242,0.667099 -4.72831,10.947055 c -6.0586,14.026992 -6.35539,15.024192 -5.41038,18.178382 0.79727,2.66104 3.64756,5.49966 6.15393,6.12872 2.46749,0.6193 5.87223,-0.31984 7.83291,-2.16058 1.20507,-1.13136 3.55864,-5.75798 6.98357,-13.728221 2.84127,-6.611968 5.2711,-12.126918 5.39962,-12.255445 0.33742,-0.337417 14.76324,7.336612 21.81661,11.605677 11.66424,7.059789 23.46441,15.692819 33.76808,24.704799 l 5.6055,4.90277 -9.17644,9.25226 c -5.04705,5.08874 -9.49186,9.87431 -9.87736,10.6346 -0.98371,1.94012 -0.87182,5.62796 0.23576,7.76977 1.63669,3.16501 3.89639,4.45453 7.80595,4.45453 h 3.50898 l 9.93793,-9.86804 9.93791,-9.86804 4.90171,5.59619 c 13.60433,15.53179 24.97814,32.51438 34.5074,51.52405 l 3.72338,7.42768 -12.15705,4.94395 c -7.38182,3.00198 -12.8224,5.59865 -13.85091,6.61073 -3.37274,3.31888 -2.92953,9.74378 0.8941,12.96115 3.07177,2.58472 6.68318,1.96146 20.0715,-3.46396 6.07446,-2.46158 11.22378,-4.47561 11.44293,-4.47561 0.41475,0 4.69016,13.27771 6.92859,21.51748 3.17389,11.68323 5.9316,29.18329 7.25528,46.04107 l 0.36027,4.58829 -30.54025,0.0139 c -28.48986,0.013 -30.71564,0.0935 -33.15255,1.20015 -6.13416,2.78552 -6.06215,13.03102 0.10972,15.6098 1.75099,0.7316 7.80009,0.89643 32.89818,0.89643 h 30.7527 l -0.38406,4.58829 c -1.60128,19.12978 -3.04751,28.84037 -6.36037,42.70616 -1.9936,8.3441 -8.26586,28.64957 -8.84972,28.64957 -0.14091,0 -5.4644,-2.24295 -11.83,-4.98433 -6.36559,-2.74139 -12.36765,-5.17021 -13.33791,-5.39738 -2.45557,-0.57494 -6.26867,0.57969 -7.99982,2.42242 -2.72628,2.902 -2.7986,9.14241 -0.13875,11.97369 0.73162,0.77877 6.89009,3.80368 13.68549,6.72202 8.16482,3.50644 12.35529,5.6265 12.35529,6.25085 0,2.4383 -13.02126,25.09023 -20.90021,36.35827 l -4.73091,6.76586 -189.66119,0.005 -189.661184,0.005 z M 346.82034,429.40029 c 4.26066,-3.9812 4.41511,-8.06178 0.65558,-17.32088 -11.92482,-29.36887 -38.62286,-49.28278 -75.30141,-56.16689 -8.78696,-1.6492 -30.39474,-2.32727 -40.16824,-1.26051 -37.25113,4.06589 -67.00562,22.22571 -81.04053,49.4608 -7.55919,14.6688 -8.05451,22.0864 -1.73295,25.95163 1.98638,1.21455 3.75013,1.23375 98.95838,1.0773 l 96.93594,-0.15928 z m -81.73028,-84.4818 c 5.42,-1.1483 13.63293,-5.10607 17.80151,-8.57844 5.74313,-4.78396 9.09275,-9.37732 13.59343,-18.64079 13.53589,-27.86011 26.48856,-51.97103 39.44246,-73.42071 8.61402,-14.26349 13.90303,-23.65766 14.13932,-25.11376 0.49101,-3.02572 -1.73354,-7.75844 -4.44955,-9.46643 -4.18043,-2.62892 -5.66638,-2.00429 -29.34782,12.33649 -11.88037,7.1944 -24.67772,14.80469 -28.43856,16.91175 -8.00917,4.48725 -32.02364,16.50587 -42.9113,21.476 -16.78623,7.66277 -25.27738,16.10488 -29.85843,29.68595 -2.12621,6.3034 -2.65905,16.0633 -1.24056,22.72309 3.21071,15.07421 15.39525,27.85157 30.27734,31.75044 5.65469,1.48144 14.88916,1.62942 20.99216,0.33641 z"
   id="path2012" /></svg>
