<?xml version="1.0" encoding="UTF-8" standalone="no"?>
<!-- Generator: Adobe Illustrator 19.1.0, SVG Export Plug-In . SVG Version: 6.00 Build 0)  -->

<svg
   version="1.1"
   id="Layer_1"
   x="0px"
   y="0px"
   viewBox="0 0 64 64"
   enable-background="new 0 0 64 64"
   xml:space="preserve"
   sodipodi:docname="rocket-svgrepo-com.svg"
   inkscape:version="1.1.2 (b8e25be833, 2022-02-05)"
   xmlns:inkscape="http://www.inkscape.org/namespaces/inkscape"
   xmlns:sodipodi="http://sodipodi.sourceforge.net/DTD/sodipodi-0.dtd"
   xmlns="http://www.w3.org/2000/svg"
   xmlns:svg="http://www.w3.org/2000/svg"><defs
   id="defs146" /><sodipodi:namedview
   id="namedview144"
   pagecolor="#ffffff"
   bordercolor="#666666"
   borderopacity="1.0"
   inkscape:pageshadow="2"
   inkscape:pageopacity="0.0"
   inkscape:pagecheckerboard="0"
   showgrid="false"
   inkscape:zoom="8"
   inkscape:cx="61.0625"
   inkscape:cy="16.375"
   inkscape:window-width="1920"
   inkscape:window-height="1017"
   inkscape:window-x="-8"
   inkscape:window-y="-8"
   inkscape:window-maximized="1"
   inkscape:current-layer="Rocket_1_" />
<g
   id="Rocket_1_">
	<path
   d="M63.9999542,8.8992481c0-2.7851996-0.7939987-4.9892998-2.3593979-6.5497999   C55.3563538-3.9113514,38.8339539,2.7459486,24.019455,17.5105476c-0.5382996,0.5366001-1.0302982,1.1086006-1.5033989,1.6948013   c-0.1553001-0.0642014-0.3339996-0.1216011-0.5394993-0.1694012c-4.2666016-0.9970989-17.960001,1.3291016-21.9463005,17.2549   c-0.1025887,0.4081993,0.0615,0.8358994,0.4101,1.0713005c0.169,0.1152,0.3643113,0.1717987,0.5596,0.1717987   c0.206,0,0.4121-0.0634003,0.5869-0.1903992c5.4105997-3.9248009,9.7511997-5.5033989,13.5403004-4.9222984   c-0.2614889,0.4740982-0.5269003,0.9365005-0.8010006,1.3783989c-0.2451992,0.3955002-0.1855993,0.9071999,0.1435118,1.235302   l1.569088,1.5639992l-2.9371996,2.9263c-0.1884995,0.1875-0.2939997,0.4422989-0.2939997,0.7080002   c0,0.2655983,0.1055002,0.5205002,0.2939997,0.7080002l9.8291121,9.7967987   c0.1952877,0.1944008,0.4500885,0.2919998,0.7059994,0.2919998c0.255888,0,0.510788-0.097599,0.706089-0.2919998   l2.9410992-2.9315987l1.5734997,1.5683975c0.1934013,0.1923027,0.4483128,0.2919998,0.7061005,0.2919998   c0.1805992,0,0.3623009-0.0489006,0.5244007-0.1484985c0.4132996-0.2549019,0.8422985-0.5024986,1.283699-0.7461014   c0.6509018,3.8078995-0.9258003,8.1761017-4.913599,13.6377029c-0.2480011,0.3398972-0.2567997,0.7987976-0.022501,1.1474991   c0.1884995,0.2812004,0.5020008,0.4423981,0.830101,0.4423981c0.0801105,0,0.1611118-0.0098,0.2411995-0.0293007   c15.9404984-3.9638977,18.2959137-17.6093979,17.3134995-21.8652992c-0.0601006-0.2597008-0.1386986-0.4641991-0.2238998-0.6455002   c0.635498-0.5021973,1.2546997-1.0267982,1.833313-1.6035004C57.1034546,29.2185478,63.9999542,17.0662479,63.9999542,8.8992481z    M16.0575562,30.5486488c-3.9013996-0.8223-8.1884995,0.3213005-13.2792997,3.5625   c2.5039001-6.9482002,7.0644999-10.2305012,10.6426001-11.7763996c2.6826-1.1582012,5.1239986-1.4824009,6.6864986-1.4824009   c0.4190006,0,0.7734013,0.0233994,1.0537014,0.0596008L16.0575562,30.5486488z M23.6366673,48.6179466l-8.4121113-8.384697   l2.2304993-2.2217026l7.2674999,7.2423019l1.1445999,1.1404991L23.6366673,48.6179466z M41.5331535,50.5730476   c-1.5468979,3.5830002-4.8417969,8.1483994-11.8368988,10.6514015c3.2461014-5.0694008,4.3935013-9.3389015,3.5703011-13.2294998   l9.6737976-5.089901C43.1141548,44.2195473,42.9872551,47.203949,41.5331535,50.5730476z M34.6893539,44.8650475   c-1.7586861,0.8467026-3.4335976,1.6514015-4.970686,2.5438995L16.4364567,34.1716499   c0.7172985-1.2282028,1.3803997-2.5621014,2.052-3.9399014l4.0607986-7.6671009   c0.8499012-1.3155994,1.7915001-2.5506992,2.8822994-3.6380997C38.9843559,5.4187484,54.916954-1.5236515,60.2284546,3.7654486   c1.1758003,1.1718998,1.7714996,2.8993998,1.7714996,5.1337996c0,7.5449009-6.8251991,19.4169998-16.982399,29.5410023   C42.1884537,41.2595482,38.3759537,43.0925484,34.6893539,44.8650475z"
   id="path102" />
	<path
   d="M42.724556,12.8533487c-1.1395988,1.1337996-1.767601,2.6426001-1.767601,4.2480001   c0,1.6064987,0.6280022,3.1152992,1.767601,4.2490997c1.1748009,1.1688995,2.7178001,1.7539005,4.2607002,1.7539005   c1.5429993,0,3.0859985-0.585001,4.2598-1.7539005c1.139698-1.1338005,1.766613-2.642601,1.766613-4.2490997   c0-1.6054001-0.626915-3.1142006-1.766613-4.2480001C48.8974533,10.5154486,45.0741539,10.5154486,42.724556,12.8533487z    M49.8349533,19.9324493c-1.5722847,1.5643997-4.1279984,1.5643997-5.7001991,0   c-0.7588005-0.7559013-1.1777992-1.7608013-1.1777992-2.8311005c0-1.0692997,0.4189987-2.0742006,1.1777992-2.8301001   c0.7861023-0.7821999,1.8183022-1.1728001,2.850502-1.1728001c1.032299,0,2.0634995,0.3906002,2.8496971,1.1728001   c0.7587128,0.7558994,1.1767159,1.7608004,1.1767159,2.8301001C51.0116692,18.171648,50.5936661,19.176548,49.8349533,19.9324493z"
   id="path104" />
	<path
   d="M16.464756,47.1472473c-0.3896008-0.3915977-1.0223999-0.3915977-1.4139996-0.0018997l-9.9950886,9.9619026   c-0.3907118,0.3895988-0.3926115,1.0223999-0.0020003,1.4139977c0.1952887,0.1963005,0.4511886,0.2940025,0.7080002,0.2940025   c0.2548885,0,0.5107884-0.097702,0.7060885-0.2920036l9.9951-9.9618988   C16.8534565,48.1716499,16.8554554,47.5388489,16.464756,47.1472473z"
   id="path106" />
	<path
   d="M5.7245564,51.9734497c0.2549,0,0.5106997-0.097702,0.7061114-0.2919998l6.5819998-6.5605011   c0.3905888-0.3897018,0.3915882-1.0224991,0.0018883-1.4141006c-0.3895998-0.3915977-1.0223999-0.392601-1.4139996-0.0019989   l-6.5820999,6.5606003c-0.3906002,0.3895988-0.3916001,1.0224991-0.0019002,1.4141006   C5.2118564,51.8757477,5.4677563,51.9734497,5.7245564,51.9734497z"
   id="path108" />
	<path
   d="M18.5018559,50.5837479l-6.5819998,6.5606003c-0.3906002,0.3895988-0.3915997,1.0224991-0.0018997,1.4141006   c0.1953001,0.1962013,0.4510994,0.2938995,0.7080002,0.2938995c0.2547998,0,0.5107107-0.0976982,0.7059994-0.2919998   l6.5821009-6.5605011c0.3906116-0.389698,0.3916111-1.0224991,0.0018997-1.4141006   C19.5263557,50.194149,18.8934555,50.1931496,18.5018559,50.5837479z"
   id="path110" />
<path
   style="fill:#6699ff;stroke:none;stroke-width:0.0883883"
   d="m 22.852958,40.662431 -6.416501,-6.490781 0.268785,-0.422926 c 0.121767,-0.191596 0.224768,-0.761565 0.592744,-1.490769 1.662629,-3.294799 5.190083,-9.688438 5.740592,-10.503307 0.911415,-1.349085 1.851892,-2.828709 3.705738,-4.5619 3.590185,-3.356522 6.69643,-5.629497 10.12879,-7.9497976 8.193312,-5.538739 16.163292,-8.6531886 20.70432,-7.4980413 1.639927,0.4171649 3.415686,1.8960143 4.120635,3.3266976 0.90752,1.8417968 0.737598,4.8640193 -0.05145,8.0344903 -1.728478,6.945194 -7.180159,15.588921 -14.898109,23.762254 -3.240357,3.431546 -4.438155,3.935865 -10.530946,7.588533 -5.075342,3.0427 -4.744481,2.2488 -5.225779,2.481265 -0.483894,0.233719 -1.254142,0.476675 -1.270152,0.476675 -0.01601,0 -3.29469,-3.066074 -6.868668,-6.752393 z M 48.501653,22.942799 c 3.527784,-0.902255 5.439909,-4.62609 4.139828,-8.062251 -0.605244,-1.599681 -1.998662,-2.901526 -3.784498,-3.535787 -0.740728,-0.263079 -2.339922,-0.324445 -3.239489,-0.12431 -2.168668,0.482483 -3.946786,2.204837 -4.521904,4.380092 -0.203088,0.768135 -0.203088,2.23707 0,3.005204 0.555066,2.099417 2.233574,3.785129 4.310877,4.329381 0.879326,0.230383 2.211483,0.233684 3.095186,0.0077 z"
   id="path1487"
   sodipodi:nodetypes="ccssssssssssssscssssssccs" /><path
   style="fill:#3366cc;stroke:none;stroke-width:0.0883883"
   d="m 2.8867909,33.793494 c 0.051977,-0.149934 0.5888688,-1.700507 1.0652276,-2.630201 1.5467907,-3.018823 4.0428737,-5.68094 6.7766715,-7.423359 2.915939,-1.858507 6.718967,-3.064982 9.580636,-2.882346 l 0.851731,0.05436 -2.546379,4.780489 -2.557122,4.856209 -0.378762,-0.05849 c -0.190354,-0.01364 -1.114604,-0.141515 -2.111183,-0.150465 -1.596068,-0.01435 -1.89129,0.117175 -2.708788,0.295014 -2.07632,0.45176 -4.7333971,1.480868 -6.8703881,2.753846 -1.0276622,0.612165 -1.2392444,0.801867 -1.2032066,0.697912 z"
   id="path3865"
   sodipodi:nodetypes="ssssccccccsss" /><path
   style="fill:#3366cc;stroke:none;stroke-width:0.0883883"
   d="m 29.85026,60.950238 c 0.01899,-0.03508 0.279385,-0.462713 0.563291,-0.939316 1.288705,-2.163392 2.381752,-4.797387 2.811844,-6.837519 0.156332,-0.741561 0.181599,-1.231126 0.187846,-2.467061 0.0043,-0.850738 -0.01976,-1.805959 -0.06397,-2.12132 l -0.08272,-0.590073 4.80636,-2.588156 4.867437,-2.501745 0.121955,1.16242 c 0.184813,1.761552 -0.434992,3.940031 -1.242307,5.976936 -1.904621,4.805471 -5.660947,8.493402 -10.72379,10.651425 -0.923944,0.393828 -1.452662,0.636265 -1.382999,0.507578 z"
   id="path3904"
   sodipodi:nodetypes="ssssscccsssss" /><path
   style="fill:#ff9900;stroke:none;stroke-width:0.0110485"
   d="m 12.499371,58.838156 c -0.116621,-0.01711 -0.201857,-0.0441 -0.312828,-0.09909 -0.199303,-0.09875 -0.34873,-0.248001 -0.447471,-0.446954 -0.07477,-0.150649 -0.102931,-0.27171 -0.102812,-0.441942 1.01e-4,-0.145927 0.01564,-0.228282 0.06932,-0.367495 0.07255,-0.188125 8.04e-4,-0.112698 2.069823,-2.176066 1.058516,-1.055624 2.570914,-2.563925 3.360885,-3.35178 0.916722,-0.914267 1.460292,-1.448429 1.502602,-1.476597 0.271938,-0.181045 0.590785,-0.227833 0.880682,-0.129232 0.347936,0.11834 0.603442,0.414995 0.665897,0.773136 0.05047,0.289409 -0.03268,0.595285 -0.219525,0.807552 -0.07716,0.08766 -6.625407,6.61641 -6.702171,6.682217 -0.203376,0.174349 -0.506532,0.264077 -0.764405,0.226248 z"
   id="path7752" /><path
   style="fill:#ff9900;stroke:none;stroke-width:0.0110485"
   d="M 5.5960873,51.960318 C 5.3573324,51.918048 5.1799974,51.829394 5.025878,51.675256 4.8345999,51.483955 4.7343009,51.2422 4.7343009,50.972455 c 0,-0.195804 0.053313,-0.376806 0.1597388,-0.542329 0.05338,-0.08302 0.056629,-0.08628 5.7622803,-5.772487 0.677739,-0.67543 1.045727,-1.034347 1.092459,-1.065529 0.200517,-0.133798 0.449821,-0.195707 0.670071,-0.166398 0.409352,0.05448 0.72774,0.327227 0.845914,0.724665 0.02977,0.100133 0.04019,0.30562 0.02139,0.422142 -0.01789,0.110902 -0.06122,0.232071 -0.121938,0.341026 -0.04532,0.08132 -0.141748,0.18035 -1.435679,1.474435 -2.9484848,2.948836 -5.33801,5.324791 -5.4104465,5.379723 -0.094801,0.07189 -0.2274345,0.136737 -0.3414229,0.166926 -0.084682,0.02243 -0.3122426,0.03779 -0.3805783,0.02569 z"
   id="path7791" /><path
   style="fill:#ffcc00;stroke:none;stroke-width:0.015625"
   d="M 5.5425756,58.780909 C 5.2677091,58.721214 5.0057805,58.514372 4.8752907,58.253962 4.7227455,57.949538 4.7443923,57.565652 4.9301836,57.280489 5.0257793,57.133763 15.072539,47.123566 15.226235,47.021908 c 0.152451,-0.100835 0.283759,-0.141618 0.484702,-0.150542 0.202804,-0.009 0.330736,0.01809 0.499164,0.105712 0.208297,0.108368 0.375587,0.290652 0.465567,0.507297 0.115431,0.277921 0.07928,0.646837 -0.08863,0.904561 -0.04576,0.07024 -1.169846,1.2004 -3.958289,3.979689 -6.4866526,6.465357 -6.2674024,6.248892 -6.3974915,6.316218 -0.2153047,0.111429 -0.4604727,0.145628 -0.6886819,0.09607 z"
   id="path7945" /><path
   style="fill:#bfbfbf;stroke:none;stroke-width:0.0220971"
   d="m 19.445131,44.416317 -4.198141,-4.186781 1.101059,-1.097838 1.10106,-1.097837 0.489263,0.483748 c 0.269094,0.266062 2.158906,2.148016 4.199581,4.18212 l 3.710318,3.69837 -1.102499,1.1025 -1.1025,1.1025 z"
   id="path8060" /><path
   style="fill:#c4f0fc;stroke:none;stroke-width:0.0110485"
   d="m 46.680096,21.090394 c -0.313625,-0.03108 -0.568617,-0.07827 -0.826465,-0.152948 -1.074613,-0.311236 -1.976279,-1.064388 -2.475656,-2.067887 -0.540217,-1.085567 -0.553249,-2.365282 -0.0353,-3.466655 0.314172,-0.668061 0.843034,-1.265732 1.477804,-1.670077 0.536518,-0.341759 1.15089,-0.549542 1.814447,-0.613654 0.176897,-0.01709 0.699211,-0.0069 0.868289,0.01695 1.11438,0.15716 2.056819,0.710656 2.719407,1.597112 1.077121,1.441047 1.038692,3.45029 -0.09293,4.858578 -0.659516,0.820762 -1.585984,1.337598 -2.650849,1.478793 -0.128959,0.0171 -0.686502,0.03091 -0.79875,0.01979 z"
   id="path8325" /></g>
<g
   id="g113">
</g>
<g
   id="g115">
</g>
<g
   id="g117">
</g>
<g
   id="g119">
</g>
<g
   id="g121">
</g>
<g
   id="g123">
</g>
<g
   id="g125">
</g>
<g
   id="g127">
</g>
<g
   id="g129">
</g>
<g
   id="g131">
</g>
<g
   id="g133">
</g>
<g
   id="g135">
</g>
<g
   id="g137">
</g>
<g
   id="g139">
</g>
<g
   id="g141">
</g>
</svg>
