<?xml version="1.0" encoding="UTF-8" standalone="no"?>
<!-- Generator: Adobe Illustrator 19.1.0, SVG Export Plug-In . SVG Version: 6.00 Build 0)  -->

<svg
   version="1.1"
   id="Layer_1"
   x="0px"
   y="0px"
   viewBox="0 0 79.732445 46.480404"
   enable-background="new 0 0 64 64"
   xml:space="preserve"
   sodipodi:docname="rocket-horizontal.svg"
   inkscape:version="1.1.2 (b8e25be833, 2022-02-05)"
   width="79.732445"
   height="46.480404"
   xmlns:inkscape="http://www.inkscape.org/namespaces/inkscape"
   xmlns:sodipodi="http://sodipodi.sourceforge.net/DTD/sodipodi-0.dtd"
   xmlns="http://www.w3.org/2000/svg"
   xmlns:svg="http://www.w3.org/2000/svg"><defs
   id="defs146" /><sodipodi:namedview
   id="namedview144"
   pagecolor="#ffffff"
   bordercolor="#666666"
   borderopacity="1.0"
   inkscape:pageshadow="2"
   inkscape:pageopacity="0.0"
   inkscape:pagecheckerboard="0"
   showgrid="false"
   inkscape:zoom="5.6568543"
   inkscape:cx="32.968854"
   inkscape:cy="23.688077"
   inkscape:window-width="1920"
   inkscape:window-height="1017"
   inkscape:window-x="-8"
   inkscape:window-y="-8"
   inkscape:window-maximized="1"
   inkscape:current-layer="Layer_1"
   fit-margin-top="0"
   fit-margin-left="0"
   fit-margin-right="0"
   fit-margin-bottom="0" />
<g
   id="Rocket_1_"
   transform="rotate(45,45.410938,34.657759)">
	<path
   d="m 63.999954,8.8992481 c 0,-2.7851996 -0.793999,-4.9892998 -2.359398,-6.5497999 -6.284202,-6.2607996 -22.806602,0.3965004 -37.621101,15.1610998 -0.5383,0.5366 -1.030298,1.1086 -1.503399,1.694801 -0.1553,-0.0642 -0.333999,-0.121601 -0.539499,-0.169401 -4.266602,-0.997099 -17.9600012,1.329101 -21.9463007,17.2549 -0.1025887,0.408199 0.0615,0.835899 0.4101,1.0713 0.169,0.1152 0.3643113,0.171799 0.5596,0.171799 0.206,0 0.4121,-0.0634 0.5869,-0.190399 5.4105997,-3.924801 9.7511997,-5.503399 13.5403007,-4.922299 -0.261489,0.474098 -0.526901,0.936501 -0.801001,1.378399 -0.245199,0.3955 -0.185599,0.9072 0.143512,1.235302 l 1.569088,1.563999 -2.9372,2.9263 c -0.188499,0.1875 -0.293999,0.442299 -0.293999,0.708001 0,0.265598 0.1055,0.5205 0.293999,0.708 l 9.829112,9.796798 c 0.195288,0.194401 0.450089,0.292 0.706,0.292 0.255888,0 0.510788,-0.0976 0.706089,-0.292 l 2.941099,-2.931598 1.5735,1.568397 c 0.193401,0.192303 0.448312,0.292 0.7061,0.292 0.180599,0 0.362301,-0.0489 0.524401,-0.148498 0.413299,-0.254902 0.842298,-0.502499 1.283699,-0.746102 0.650902,3.8079 -0.9258,8.176102 -4.913599,13.637703 -0.248001,0.339897 -0.2568,0.798798 -0.0225,1.147499 0.188499,0.281201 0.502001,0.442398 0.830101,0.442398 0.08011,0 0.161112,-0.0098 0.241199,-0.0293 15.940499,-3.963898 18.295914,-17.609398 17.3135,-21.8653 -0.0601,-0.2597 -0.138699,-0.464199 -0.2239,-0.6455 0.635498,-0.502197 1.2547,-1.026798 1.833313,-1.6035 C 57.103455,29.218548 63.999954,17.066248 63.999954,8.8992481 Z M 16.057556,30.548649 c -3.901399,-0.8223 -8.1884993,0.3213 -13.2792995,3.5625 2.5039001,-6.9482 7.0644999,-10.230501 10.6426005,-11.7764 2.6826,-1.158201 5.123998,-1.482401 6.686498,-1.482401 0.419001,0 0.773401,0.0234 1.053702,0.0596 z m 7.579111,18.069298 -8.412111,-8.384697 2.230499,-2.221703 7.2675,7.242302 1.1446,1.140499 z m 17.896486,1.955101 c -1.546897,3.583 -4.841796,8.148399 -11.836898,10.651401 3.246101,-5.069401 4.393501,-9.338901 3.570301,-13.2295 l 9.673797,-5.089901 c 0.173802,1.314499 0.0469,4.298901 -1.4072,7.668 z m -6.843799,-5.708 c -1.758686,0.846702 -3.433598,1.651401 -4.970686,2.543899 L 16.436457,34.17165 c 0.717298,-1.228203 1.380399,-2.562102 2.052,-3.939902 l 4.060798,-7.6671 c 0.849901,-1.3156 1.7915,-2.5507 2.8823,-3.6381 13.552801,-13.5077996 29.485399,-20.4501995 34.7969,-15.1610994 1.1758,1.1718998 1.771499,2.8993998 1.771499,5.1337996 0,7.5449008 -6.825199,19.4169998 -16.982399,29.5410018 -2.829101,2.819298 -6.641601,4.652298 -10.328201,6.424798 z"
   id="path102" />
	<path
   d="m 42.724556,12.853349 c -1.139599,1.133799 -1.767601,2.6426 -1.767601,4.248 0,1.606498 0.628002,3.115299 1.767601,4.249099 1.174801,1.1689 2.7178,1.753901 4.2607,1.753901 1.542999,0 3.085999,-0.585001 4.2598,-1.753901 1.139698,-1.1338 1.766613,-2.642601 1.766613,-4.249099 0,-1.6054 -0.626915,-3.114201 -1.766613,-4.248 -2.347603,-2.3379 -6.170902,-2.3379 -8.5205,0 z m 7.110397,7.0791 c -1.572284,1.5644 -4.127998,1.5644 -5.700199,0 -0.7588,-0.755901 -1.177799,-1.760801 -1.177799,-2.8311 0,-1.0693 0.418999,-2.074201 1.177799,-2.8301 0.786103,-0.7822 1.818302,-1.1728 2.850502,-1.1728 1.032299,0 2.0635,0.3906 2.849697,1.1728 0.758713,0.755899 1.176716,1.7608 1.176716,2.8301 0,1.070299 -0.418003,2.075199 -1.176716,2.8311 z"
   id="path104" />
	<path
   d="m 16.464756,47.147247 c -0.389601,-0.391597 -1.0224,-0.391597 -1.414,-0.0019 L 5.0556678,57.10725 c -0.3907118,0.389599 -0.3926115,1.0224 -0.002,1.413998 0.1952887,0.1963 0.4511886,0.294002 0.7080002,0.294002 0.2548885,0 0.5107884,-0.0977 0.7060885,-0.292003 l 9.9950995,-9.961899 c 0.3906,-0.389698 0.392599,-1.022499 0.0019,-1.414101 z"
   id="path106" />
	<path
   d="m 5.7245564,51.97345 c 0.2549,0 0.5106997,-0.0977 0.7061114,-0.292 l 6.5820002,-6.560501 c 0.390588,-0.389702 0.391588,-1.022499 0.0019,-1.414101 -0.3896,-0.391597 -1.0224,-0.392601 -1.414,-0.002 L 5.0184564,50.26545 c -0.3906002,0.389598 -0.3916001,1.022499 -0.0019,1.4141 0.1953002,0.196198 0.4512001,0.2939 0.708,0.2939 z"
   id="path108" />
	<path
   d="m 18.501856,50.583748 -6.582,6.5606 c -0.3906,0.389599 -0.3916,1.022499 -0.0019,1.414101 0.195301,0.196201 0.4511,0.293899 0.708001,0.293899 0.254799,0 0.51071,-0.0977 0.705999,-0.292 l 6.582101,-6.560501 c 0.390611,-0.389698 0.391611,-1.022499 0.0019,-1.4141 -0.389601,-0.391598 -1.022501,-0.392597 -1.414101,-0.002 z"
   id="path110" />
<path
   style="fill:#6699ff;stroke:none;stroke-width:0.0883883"
   d="m 22.852958,40.662431 -6.416501,-6.490781 0.268785,-0.422926 c 0.121767,-0.191596 0.224768,-0.761565 0.592744,-1.490769 1.662629,-3.294799 5.190083,-9.688438 5.740592,-10.503307 0.911415,-1.349085 1.851892,-2.828709 3.705738,-4.5619 3.590185,-3.356522 6.69643,-5.629497 10.12879,-7.9497976 8.193312,-5.538739 16.163292,-8.6531886 20.70432,-7.4980413 1.639927,0.4171649 3.415686,1.8960143 4.120635,3.3266976 0.90752,1.8417968 0.737598,4.8640193 -0.05145,8.0344903 -1.728478,6.945194 -7.180159,15.588921 -14.898109,23.762254 -3.240357,3.431546 -4.438155,3.935865 -10.530946,7.588533 -5.075342,3.0427 -4.744481,2.2488 -5.225779,2.481265 -0.483894,0.233719 -1.254142,0.476675 -1.270152,0.476675 -0.01601,0 -3.29469,-3.066074 -6.868667,-6.752393 z M 48.501653,22.942799 c 3.527784,-0.902255 5.439909,-4.62609 4.139828,-8.062251 -0.605244,-1.599681 -1.998662,-2.901526 -3.784498,-3.535787 -0.740728,-0.263079 -2.339922,-0.324445 -3.239489,-0.12431 -2.168668,0.482483 -3.946786,2.204837 -4.521904,4.380092 -0.203088,0.768135 -0.203088,2.23707 0,3.005204 0.555066,2.099417 2.233574,3.785129 4.310877,4.329381 0.879326,0.230383 2.211483,0.233684 3.095186,0.0077 z"
   id="path1487"
   sodipodi:nodetypes="ccssssssssssssscssssssccs" /><path
   style="fill:#3366cc;stroke:none;stroke-width:0.0883883"
   d="m 2.8867909,33.793494 c 0.051977,-0.149934 0.5888688,-1.700507 1.0652276,-2.630201 1.5467907,-3.018823 4.0428737,-5.68094 6.7766715,-7.423359 2.915939,-1.858507 6.718967,-3.064982 9.580636,-2.882346 l 0.851731,0.05436 -2.546379,4.780489 -2.557122,4.856209 -0.378762,-0.05849 c -0.190354,-0.01364 -1.114604,-0.141515 -2.111183,-0.150465 -1.596068,-0.01435 -1.89129,0.117175 -2.708788,0.295014 -2.07632,0.45176 -4.7333971,1.480868 -6.8703881,2.753846 -1.0276622,0.612165 -1.2392444,0.801867 -1.2032066,0.697912 z"
   id="path3865"
   sodipodi:nodetypes="ssssccccccsss" /><path
   style="fill:#3366cc;stroke:none;stroke-width:0.0883883"
   d="m 29.85026,60.950238 c 0.01899,-0.03508 0.279385,-0.462713 0.563291,-0.939316 1.288705,-2.163392 2.381752,-4.797387 2.811844,-6.837519 0.156332,-0.741561 0.181599,-1.231126 0.187846,-2.467061 0.0043,-0.850738 -0.01976,-1.805959 -0.06397,-2.12132 l -0.08272,-0.590073 4.80636,-2.588156 4.867437,-2.501745 0.121955,1.16242 c 0.184813,1.761552 -0.434992,3.940031 -1.242307,5.976936 -1.904621,4.805471 -5.660947,8.493402 -10.72379,10.651425 -0.923944,0.393828 -1.452662,0.636265 -1.382999,0.507578 z"
   id="path3904"
   sodipodi:nodetypes="ssssscccsssss" /><path
   style="fill:#ff9900;stroke:none;stroke-width:0.0110485"
   d="m 12.499371,58.838156 c -0.116621,-0.01711 -0.201857,-0.0441 -0.312828,-0.09909 -0.199303,-0.09875 -0.34873,-0.248001 -0.447471,-0.446954 -0.07477,-0.150649 -0.102931,-0.27171 -0.102812,-0.441942 1.01e-4,-0.145927 0.01564,-0.228282 0.06932,-0.367495 0.07255,-0.188125 8.04e-4,-0.112698 2.069823,-2.176066 1.058516,-1.055624 2.570914,-2.563925 3.360885,-3.35178 0.916722,-0.914267 1.460292,-1.448429 1.502602,-1.476597 0.271938,-0.181045 0.590785,-0.227833 0.880682,-0.129232 0.347936,0.11834 0.603442,0.414995 0.665897,0.773136 0.05047,0.289409 -0.03268,0.595285 -0.219525,0.807552 -0.07716,0.08766 -6.625407,6.61641 -6.702171,6.682217 -0.203376,0.174349 -0.506532,0.264077 -0.764405,0.226248 z"
   id="path7752" /><path
   style="fill:#ff9900;stroke:none;stroke-width:0.0110485"
   d="M 5.5960873,51.960318 C 5.3573324,51.918048 5.1799974,51.829394 5.025878,51.675256 4.8345999,51.483955 4.7343009,51.2422 4.7343009,50.972455 c 0,-0.195804 0.053313,-0.376806 0.1597388,-0.542329 0.05338,-0.08302 0.056629,-0.08628 5.7622803,-5.772487 0.677739,-0.67543 1.045727,-1.034347 1.092459,-1.065529 0.200517,-0.133798 0.449821,-0.195707 0.670071,-0.166398 0.409352,0.05448 0.72774,0.327227 0.845914,0.724665 0.02977,0.100133 0.04019,0.30562 0.02139,0.422142 -0.01789,0.110902 -0.06122,0.232071 -0.121938,0.341026 -0.04532,0.08132 -0.141748,0.18035 -1.435679,1.474435 -2.9484848,2.948836 -5.33801,5.324791 -5.4104465,5.379723 -0.094801,0.07189 -0.2274345,0.136737 -0.3414229,0.166926 -0.084682,0.02243 -0.3122426,0.03779 -0.3805783,0.02569 z"
   id="path7791" /><path
   style="fill:#ffcc00;stroke:none;stroke-width:0.015625"
   d="M 5.5425756,58.780909 C 5.2677091,58.721214 5.0057805,58.514372 4.8752907,58.253962 4.7227455,57.949538 4.7443923,57.565652 4.9301836,57.280489 5.0257793,57.133763 15.072539,47.123566 15.226235,47.021908 c 0.152451,-0.100835 0.283759,-0.141618 0.484702,-0.150542 0.202804,-0.009 0.330736,0.01809 0.499164,0.105712 0.208297,0.108368 0.375587,0.290652 0.465567,0.507297 0.115431,0.277921 0.07928,0.646837 -0.08863,0.904561 -0.04576,0.07024 -1.169846,1.2004 -3.958289,3.979689 -6.4866526,6.465357 -6.2674024,6.248892 -6.3974915,6.316218 -0.2153047,0.111429 -0.4604727,0.145628 -0.6886819,0.09607 z"
   id="path7945" /><path
   style="fill:#bfbfbf;stroke:none;stroke-width:0.0220971"
   d="m 19.445131,44.416317 -4.198141,-4.186781 1.101059,-1.097838 1.10106,-1.097837 0.489263,0.483748 c 0.269094,0.266062 2.158906,2.148016 4.199581,4.18212 l 3.710318,3.69837 -1.102499,1.1025 -1.1025,1.1025 z"
   id="path8060" /><path
   style="fill:#c4f0fc;stroke:none;stroke-width:0.0110485"
   d="m 46.680096,21.090394 c -0.313625,-0.03108 -0.568617,-0.07827 -0.826465,-0.152948 -1.074613,-0.311236 -1.976279,-1.064388 -2.475656,-2.067887 -0.540217,-1.085567 -0.553249,-2.365282 -0.0353,-3.466655 0.314172,-0.668061 0.843034,-1.265732 1.477804,-1.670077 0.536518,-0.341759 1.15089,-0.549542 1.814447,-0.613654 0.176897,-0.01709 0.699211,-0.0069 0.868289,0.01695 1.11438,0.15716 2.056819,0.710656 2.719407,1.597112 1.077121,1.441047 1.038692,3.45029 -0.09293,4.858578 -0.659516,0.820762 -1.585984,1.337598 -2.650849,1.478793 -0.128959,0.0171 -0.686502,0.03091 -0.79875,0.01979 z"
   id="path8325" /></g>
<g
   id="g113"
   transform="translate(5.8072923,-8.7045248)">
</g>
<g
   id="g115"
   transform="translate(5.8072923,-8.7045248)">
</g>
<g
   id="g117"
   transform="translate(5.8072923,-8.7045248)">
</g>
<g
   id="g119"
   transform="translate(5.8072923,-8.7045248)">
</g>
<g
   id="g121"
   transform="translate(5.8072923,-8.7045248)">
</g>
<g
   id="g123"
   transform="translate(5.8072923,-8.7045248)">
</g>
<g
   id="g125"
   transform="translate(5.8072923,-8.7045248)">
</g>
<g
   id="g127"
   transform="translate(5.8072923,-8.7045248)">
</g>
<g
   id="g129"
   transform="translate(5.8072923,-8.7045248)">
</g>
<g
   id="g131"
   transform="translate(5.8072923,-8.7045248)">
</g>
<g
   id="g133"
   transform="translate(5.8072923,-8.7045248)">
</g>
<g
   id="g135"
   transform="translate(5.8072923,-8.7045248)">
</g>
<g
   id="g137"
   transform="translate(5.8072923,-8.7045248)">
</g>
<g
   id="g139"
   transform="translate(5.8072923,-8.7045248)">
</g>
<g
   id="g141"
   transform="translate(5.8072923,-8.7045248)">
</g>
</svg>
