<?xml version="1.0" encoding="UTF-8" standalone="no"?>
<!-- Generator: Adobe Illustrator 19.0.0, SVG Export Plug-In . SVG Version: 6.00 Build 0)  -->

<svg
   version="1.1"
   id="Layer_1"
   x="0px"
   y="0px"
   viewBox="0 0 512 512"
   style="enable-background:new 0 0 512 512;"
   xml:space="preserve"
   sodipodi:docname="trashcan.svg"
   inkscape:version="1.1.2 (b8e25be833, 2022-02-05)"
   xmlns:inkscape="http://www.inkscape.org/namespaces/inkscape"
   xmlns:sodipodi="http://sodipodi.sourceforge.net/DTD/sodipodi-0.dtd"
   xmlns:xlink="http://www.w3.org/1999/xlink"
   xmlns="http://www.w3.org/2000/svg"
   xmlns:svg="http://www.w3.org/2000/svg"><defs
   id="defs13432"><linearGradient
     inkscape:collect="always"
     id="linearGradient13829"><stop
       style="stop-color:#000000;stop-opacity:1;"
       offset="0"
       id="stop13825" /><stop
       style="stop-color:#000000;stop-opacity:0;"
       offset="1"
       id="stop13827" /></linearGradient><linearGradient
     inkscape:collect="always"
     xlink:href="#linearGradient13829"
     id="linearGradient13831"
     x1="243.2"
     y1="332.8"
     x2="268.8"
     y2="332.8"
     gradientUnits="userSpaceOnUse" /></defs><sodipodi:namedview
   id="namedview13430"
   pagecolor="#ffffff"
   bordercolor="#666666"
   borderopacity="1.0"
   inkscape:pageshadow="2"
   inkscape:pageopacity="0.0"
   inkscape:pagecheckerboard="0"
   showgrid="false"
   inkscape:zoom="1.6230469"
   inkscape:cx="256"
   inkscape:cy="256.30806"
   inkscape:window-width="1920"
   inkscape:window-height="1017"
   inkscape:window-x="-8"
   inkscape:window-y="-8"
   inkscape:window-maximized="1"
   inkscape:current-layer="Layer_1" />
<g
   id="g13379"
   style="fill:#ebebeb;fill-opacity:1">
	<g
   id="g13377"
   style="fill:#ebebeb;fill-opacity:1">
		<rect
   x="166.4"
   y="230.4"
   width="25.6"
   height="204.8"
   id="rect13375"
   style="fill:#ebebeb;fill-opacity:1" />
	</g>
</g>
<g
   id="g13385"
   style="fill-opacity:1;fill:#ebebeb">
	<g
   id="g13383"
   style="fill-opacity:1;fill:#ebebeb">
		<rect
   x="243.2"
   y="230.4"
   width="25.6"
   height="204.8"
   id="rect13381"
   style="fill-opacity:1;fill:#ebebeb" />
	</g>
</g>
<g
   id="g13391"
   style="fill:#ebebeb;fill-opacity:1">
	<g
   id="g13389"
   style="fill:#ebebeb;fill-opacity:1">
		<rect
   x="320"
   y="230.4"
   width="25.6"
   height="204.8"
   id="rect13387"
   style="fill:#ebebeb;fill-opacity:1" />
	</g>
</g>
<g
   id="g13397">
	<g
   id="g13395"
   style="fill:#ebebeb;fill-opacity:1">
		<path
   d="M422.4,51.2H320V25.6C320,11.46,308.54,0,294.4,0h-76.8C203.46,0,192,11.46,192,25.6v25.6H89.6    C75.46,51.2,64,62.66,64,76.8V128c0,14.14,11.46,25.6,25.6,25.6v332.8c0,14.14,11.46,25.6,25.6,25.6h281.6    c14.14,0,25.6-11.46,25.6-25.6V153.6c14.14,0,25.6-11.46,25.6-25.6V76.8C448,62.66,436.54,51.2,422.4,51.2z M217.6,25.6h76.8v25.6    h-76.8V25.6z M396.8,486.4H115.2V153.6h281.6V486.4z M422.4,128H89.6V76.8h332.8V128z"
   id="path13393"
   style="fill:#ebebeb;fill-opacity:1" />
	</g>
</g>
<g
   id="g13399">
</g>
<g
   id="g13401">
</g>
<g
   id="g13403">
</g>
<g
   id="g13405">
</g>
<g
   id="g13407">
</g>
<g
   id="g13409">
</g>
<g
   id="g13411">
</g>
<g
   id="g13413">
</g>
<g
   id="g13415">
</g>
<g
   id="g13417">
</g>
<g
   id="g13419">
</g>
<g
   id="g13421">
</g>
<g
   id="g13423">
</g>
<g
   id="g13425">
</g>
<g
   id="g13427">
</g>
</svg>
